# xmcd
#
# Track frame offsets:
#	150
#	6714
#	22719
#	40003
#	60523
#	77894
#	96399
#	112564
#	127980
#	148149
#	164680
#	175290
#	193209
#	206522
#	225184
#	243772
#	259564
#
# Disc length: 3727 seconds
#
# Revision: 0
# Processed by: cddbd v1.5.1PL0 Copyright (c) Steve Scherf et al.
# Submitted via: EasyCDDAExtractor 4.6.0.1
#
DISCID=d80e8d11
DTITLE=Стимул - Премьера
DYEAR=2004
DGENRE=Rap
TTITLE0=Премьера
TTITLE1=Видано-Невидано
TTITLE2=Плечом К Плечу (feat. Варчун)
TTITLE3=Для Чего Все Это?
TTITLE4=Рэпрезент (feat. Злой Дух)
TTITLE5=Я Найду (feat. Карандаш)
TTITLE6=Притча
TTITLE7=Мы Следим За Вами (feat. Dime)
TTITLE8=Правило № (feat. Карандаш и Прицеп)
TTITLE9=Что Я Хочу Сказать
TTITLE10=Клубец (feat. Капа)
TTITLE11=Словянское Кунг-Фу (feat. Карандаш)
TTITLE12=Давай Уедем
TTITLE13=Новый Вавилон (feat. J Bass)
TTITLE14=Там, Где Не Светит Солнце (feat. Smile (Н.П.Д.) и Наташа)
TTITLE15=На Фестивале (feat. Шпалы и Som Clan)
TTITLE16=Супергерой
EXTD=
EXTT0=
EXTT1=
EXTT2=
EXTT3=
EXTT4=
EXTT5=
EXTT6=
EXTT7=
EXTT8=
EXTT9=
EXTT10=
EXTT11=
EXTT12=
EXTT13=
EXTT14=
EXTT15=
EXTT16=
PLAYORDER=
